# Blender v2.90.0 OBJ File: ''
# www.blender.org
mtllib Stalk.mtl
o Cube.002
v 1.000000 7.892977 -1.000000
v 0.712247 0.200109 -0.712247
v 1.000000 7.892977 1.000000
v 0.712247 0.200109 0.712247
v -1.000000 7.892977 -1.000000
v -0.712247 0.200109 -0.712247
v -1.000000 7.892977 1.000000
v -0.712247 0.200109 0.712247
v 1.000000 9.208763 -1.000000
v 1.000000 9.208763 1.000000
v -1.000000 9.208763 -1.000000
v -1.000000 9.208763 1.000000
v 3.139588 9.748321 -0.826506
v 3.139588 9.748321 0.826506
v 3.139588 11.064106 -0.826506
v 3.139588 11.064106 0.826506
v 0.731195 9.737207 3.054096
v -0.731195 9.737207 3.054096
v 0.731195 11.052993 3.054096
v -0.731195 11.052993 3.054096
v 0.731195 9.737207 -3.051822
v -0.731195 9.737207 -3.051822
v 0.731195 11.052993 -3.051822
v -0.731195 11.052993 -3.051822
v -3.137856 9.748321 -0.826506
v -3.137856 9.748321 0.826506
v -3.137856 11.064106 -0.826506
v -3.137856 11.064106 0.826506
v 0.712247 5.768458 -0.712247
v -0.712247 5.768458 0.712247
v 0.712247 5.768458 0.712247
v -0.712247 5.768458 -0.712247
vt 0.625000 0.250000
vt 0.625000 0.000000
vt 0.625000 0.000000
vt 0.625000 0.250000
vt 0.543324 0.750000
vt 0.625000 0.750000
vt 0.625000 1.000000
vt 0.543324 1.000000
vt 0.543324 0.000000
vt 0.543324 0.250000
vt 0.125000 0.500000
vt 0.375000 0.500000
vt 0.375000 0.750000
vt 0.125000 0.750000
vt 0.543324 0.500000
vt 0.625000 0.500000
vt 0.625000 0.500000
vt 0.875000 0.500000
vt 0.875000 0.750000
vt 0.625000 0.750000
vt 0.625000 0.500000
vt 0.625000 0.750000
vt 0.625000 0.500000
vt 0.625000 0.500000
vt 0.625000 0.000000
vt 0.625000 0.000000
vt 0.625000 0.000000
vt 0.625000 0.500000
vt 0.625000 0.750000
vt 0.625000 1.000000
vt 0.625000 0.750000
vt 0.625000 0.750000
vt 0.625000 1.000000
vt 0.875000 0.750000
vt 0.625000 0.250000
vt 0.625000 0.250000
vt 0.625000 0.250000
vt 0.875000 0.500000
vt 0.625000 0.000000
vt 0.625000 0.250000
vt 0.875000 0.500000
vt 0.875000 0.750000
vt 0.375000 0.250000
vt 0.375000 0.000000
vt 0.375000 1.000000
vn -0.6554 -0.7552 0.0000
vn 0.0000 -0.1342 0.9910
vn -0.9910 -0.1342 0.0000
vn 0.0000 -1.0000 0.0000
vn 0.9910 -0.1342 0.0000
vn 0.0000 -0.1342 -0.9910
vn 0.0000 1.0000 0.0000
vn 0.6551 -0.7555 0.0000
vn 0.9915 0.0000 -0.1299
vn -0.9915 0.0000 0.1298
vn 1.0000 0.0000 0.0000
vn 0.0808 0.0000 -0.9967
vn 0.0808 0.0000 0.9967
vn -0.6551 0.7555 0.0000
vn 0.0000 0.0000 1.0000
vn 0.0000 0.7441 -0.6681
vn 0.9915 0.0000 0.1298
vn 0.0000 -0.7441 0.6681
vn 0.0000 0.0000 -1.0000
vn 0.0000 -0.7437 -0.6685
vn -0.9915 0.0000 -0.1299
vn 0.0000 0.7437 0.6685
vn -1.0000 0.0000 0.0000
vn -0.0809 0.0000 0.9967
vn 0.6554 0.7552 0.0000
vn -0.0809 0.0000 -0.9967
usemtl Material
s off
f 5/1/1 7/2/1 26/3/1 25/4/1
f 31/5/2 3/6/2 7/7/2 30/8/2
f 30/9/3 7/2/3 5/1/3 32/10/3
f 6/11/4 2/12/4 4/13/4 8/14/4
f 29/15/5 1/16/5 3/6/5 31/5/5
f 32/10/6 5/1/6 1/16/6 29/15/6
f 9/17/7 11/18/7 12/19/7 10/20/7
f 3/6/8 1/16/8 13/21/8 14/22/8
f 9/17/9 1/16/9 21/23/9 23/24/9
f 12/25/10 7/2/10 18/26/10 20/27/10
f 14/22/11 13/21/11 15/28/11 16/29/11
f 1/16/12 9/17/12 15/28/12 13/21/12
f 10/20/13 3/6/13 14/22/13 16/29/13
f 9/17/14 10/20/14 16/29/14 15/28/14
f 18/30/15 17/31/15 19/32/15 20/33/15
f 10/20/16 12/19/16 20/34/16 19/32/16
f 3/6/17 10/20/17 19/32/17 17/31/17
f 7/7/18 3/6/18 17/31/18 18/30/18
f 21/23/19 22/35/19 24/36/19 23/24/19
f 1/16/20 5/1/20 22/35/20 21/23/20
f 5/1/21 11/37/21 24/36/21 22/35/21
f 11/18/22 9/17/22 23/24/22 24/38/22
f 25/4/23 26/3/23 28/39/23 27/40/23
f 7/2/24 12/25/24 28/39/24 26/3/24
f 12/19/25 11/18/25 27/41/25 28/42/25
f 11/37/26 5/1/26 25/4/26 27/40/26
f 6/43/19 32/10/19 29/15/19 2/12/19
f 2/12/11 29/15/11 31/5/11 4/13/11
f 8/44/23 30/9/23 32/10/23 6/43/23
f 4/13/15 31/5/15 30/8/15 8/45/15
o Cube.003
v 1.000000 7.892977 -1.000000
v 0.712247 0.200109 -0.712247
v 1.000000 7.892977 1.000000
v 0.712247 0.200109 0.712247
v -1.000000 7.892977 -1.000000
v -0.712247 0.200109 -0.712247
v -1.000000 7.892977 1.000000
v -0.712247 0.200109 0.712247
v 1.000000 9.208763 -1.000000
v 1.000000 9.208763 1.000000
v -1.000000 9.208763 -1.000000
v -1.000000 9.208763 1.000000
v 3.139588 9.748321 -0.826506
v 3.139588 9.748321 0.826506
v 3.139588 11.064106 -0.826506
v 3.139588 11.064106 0.826506
v 0.731195 9.737207 3.054096
v -0.731195 9.737207 3.054096
v 0.731195 11.052993 3.054096
v -0.731195 11.052993 3.054096
v 0.731195 9.737207 -3.051822
v -0.731195 9.737207 -3.051822
v 0.731195 11.052993 -3.051822
v -0.731195 11.052993 -3.051822
v -3.137856 9.748321 -0.826506
v -3.137856 9.748321 0.826506
v -3.137856 11.064106 -0.826506
v -3.137856 11.064106 0.826506
v 0.712247 5.768458 -0.712247
v -0.712247 5.768458 0.712247
v 0.712247 5.768458 0.712247
v -0.712247 5.768458 -0.712247
vt 0.625000 0.250000
vt 0.625000 0.000000
vt 0.625000 0.000000
vt 0.625000 0.250000
vt 0.543324 0.750000
vt 0.625000 0.750000
vt 0.625000 1.000000
vt 0.543324 1.000000
vt 0.543324 0.000000
vt 0.543324 0.250000
vt 0.125000 0.500000
vt 0.375000 0.500000
vt 0.375000 0.750000
vt 0.125000 0.750000
vt 0.543324 0.500000
vt 0.625000 0.500000
vt 0.625000 0.500000
vt 0.875000 0.500000
vt 0.875000 0.750000
vt 0.625000 0.750000
vt 0.625000 0.500000
vt 0.625000 0.750000
vt 0.625000 0.500000
vt 0.625000 0.500000
vt 0.625000 0.000000
vt 0.625000 0.000000
vt 0.625000 0.000000
vt 0.625000 0.500000
vt 0.625000 0.750000
vt 0.625000 1.000000
vt 0.625000 0.750000
vt 0.625000 0.750000
vt 0.625000 1.000000
vt 0.875000 0.750000
vt 0.625000 0.250000
vt 0.625000 0.250000
vt 0.625000 0.250000
vt 0.875000 0.500000
vt 0.625000 0.000000
vt 0.625000 0.250000
vt 0.875000 0.500000
vt 0.875000 0.750000
vt 0.375000 0.250000
vt 0.375000 0.000000
vt 0.375000 1.000000
vn -0.6554 -0.7552 0.0000
vn 0.0000 -0.1342 0.9910
vn -0.9910 -0.1342 0.0000
vn 0.0000 -1.0000 0.0000
vn 0.9910 -0.1342 0.0000
vn 0.0000 -0.1342 -0.9910
vn 0.0000 1.0000 0.0000
vn 0.6551 -0.7555 0.0000
vn 0.9915 0.0000 -0.1299
vn -0.9915 0.0000 0.1298
vn 1.0000 0.0000 0.0000
vn 0.0808 0.0000 -0.9967
vn 0.0808 0.0000 0.9967
vn -0.6551 0.7555 0.0000
vn 0.0000 0.0000 1.0000
vn 0.0000 0.7441 -0.6681
vn 0.9915 0.0000 0.1298
vn 0.0000 -0.7441 0.6681
vn 0.0000 0.0000 -1.0000
vn 0.0000 -0.7437 -0.6685
vn -0.9915 0.0000 -0.1299
vn 0.0000 0.7437 0.6685
vn -1.0000 0.0000 0.0000
vn -0.0809 0.0000 0.9967
vn 0.6554 0.7552 0.0000
vn -0.0809 0.0000 -0.9967
usemtl Material
s off
f 37/46/27 39/47/27 58/48/27 57/49/27
f 63/50/28 35/51/28 39/52/28 62/53/28
f 62/54/29 39/47/29 37/46/29 64/55/29
f 38/56/30 34/57/30 36/58/30 40/59/30
f 61/60/31 33/61/31 35/51/31 63/50/31
f 64/55/32 37/46/32 33/61/32 61/60/32
f 41/62/33 43/63/33 44/64/33 42/65/33
f 35/51/34 33/61/34 45/66/34 46/67/34
f 41/62/35 33/61/35 53/68/35 55/69/35
f 44/70/36 39/47/36 50/71/36 52/72/36
f 46/67/37 45/66/37 47/73/37 48/74/37
f 33/61/38 41/62/38 47/73/38 45/66/38
f 42/65/39 35/51/39 46/67/39 48/74/39
f 41/62/40 42/65/40 48/74/40 47/73/40
f 50/75/41 49/76/41 51/77/41 52/78/41
f 42/65/42 44/64/42 52/79/42 51/77/42
f 35/51/43 42/65/43 51/77/43 49/76/43
f 39/52/44 35/51/44 49/76/44 50/75/44
f 53/68/45 54/80/45 56/81/45 55/69/45
f 33/61/46 37/46/46 54/80/46 53/68/46
f 37/46/47 43/82/47 56/81/47 54/80/47
f 43/63/48 41/62/48 55/69/48 56/83/48
f 57/49/49 58/48/49 60/84/49 59/85/49
f 39/47/50 44/70/50 60/84/50 58/48/50
f 44/64/51 43/63/51 59/86/51 60/87/51
f 43/82/52 37/46/52 57/49/52 59/85/52
f 38/88/45 64/55/45 61/60/45 34/57/45
f 34/57/37 61/60/37 63/50/37 36/58/37
f 40/89/49 62/54/49 64/55/49 38/88/49
f 36/58/41 63/50/41 62/53/41 40/90/41
